inDegrees=no
num_controls=7
num_derivatives=13
num_iterations=107
num_multipliers=7
num_parameters=0
num_slacks=7
num_states=26
objective=5.934860
objective_accelerations=0.549884
objective_balance=0.063022
objective_effort=0.469452
objective_height=4.805582
objective_ligament=0.046919
solver_duration=1127.413161
status=Solve_Succeeded
success=true
DataType=double
version=3
OpenSimVersion=4.4-2022-07-23-0e9fedc
endheader
time	/jointset/ground_pelvis/pelvis_tilt/value	/jointset/ground_pelvis/pelvis_tx/value	/jointset/ground_pelvis/pelvis_ty/value	/jointset/hip_l/hip_flexion_l/value	/jointset/hip_l/hip_adduction_l/value	/jointset/hip_l/hip_rotation_l/value	/jointset/back/lumbar_extension/value	/jointset/patellofemoral_l/patellar_flexion_l/value	/jointset/knee_l/knee_flexion_l/value	/jointset/knee_l/knee_adduction_l/value	/jointset/knee_l/knee_rotation_l/value	/jointset/ankle_l/ankle_angle_l/value	/jointset/subtalar_l/subtalar_angle_l/value	/jointset/ground_pelvis/pelvis_tilt/speed	/jointset/ground_pelvis/pelvis_tx/speed	/jointset/ground_pelvis/pelvis_ty/speed	/jointset/hip_l/hip_flexion_l/speed	/jointset/hip_l/hip_adduction_l/speed	/jointset/hip_l/hip_rotation_l/speed	/jointset/back/lumbar_extension/speed	/jointset/patellofemoral_l/patellar_flexion_l/speed	/jointset/knee_l/knee_flexion_l/speed	/jointset/knee_l/knee_adduction_l/speed	/jointset/knee_l/knee_rotation_l/speed	/jointset/ankle_l/ankle_angle_l/speed	/jointset/subtalar_l/subtalar_angle_l/speed	/forceset/tau_hip_flexion_l	/forceset/tau_hip_adduction_l	/forceset/tau_hip_rotation_l	/forceset/tau_knee_flexion_l	/forceset/tau_ankle_angle_l	/forceset/tau_subtalar_angle_l	/forceset/tau_lumbar_extension	lambda_cid13_p0	lambda_cid13_p1	lambda_cid13_p2	lambda_cid13_p3	lambda_cid13_p4	lambda_cid13_p5	lambda_cid14_p0	/jointset/ground_pelvis/pelvis_tilt/accel	/jointset/ground_pelvis/pelvis_tx/accel	/jointset/ground_pelvis/pelvis_ty/accel	/jointset/hip_l/hip_flexion_l/accel	/jointset/hip_l/hip_adduction_l/accel	/jointset/hip_l/hip_rotation_l/accel	/jointset/back/lumbar_extension/accel	/jointset/patellofemoral_l/patellar_flexion_l/accel	/jointset/knee_l/knee_flexion_l/accel	/jointset/knee_l/knee_adduction_l/accel	/jointset/knee_l/knee_rotation_l/accel	/jointset/ankle_l/ankle_angle_l/accel	/jointset/subtalar_l/subtalar_angle_l/accel	gamma_cid13_p0	gamma_cid13_p1	gamma_cid13_p2	gamma_cid13_p3	gamma_cid13_p4	gamma_cid13_p5	gamma_cid14_p0
1	-0.06000476002489553	-0.01985427200708465	0.6928559840082807	1.221979044201496	-0.3343409958092369	0.07578209169389817	-0.9599310806925826	1.429667001099096	1.429667001099082	-0.06294561838289156	-0.1745032330453467	0.370070245148996	0.09920198360062774	0.1158539520241349	0.02807173508625681	0.06701232962256504	-0.3092504394991054	-0.008066577306686107	-0.06539276622727651	-0.001417794602011789	-0.1555345840347271	-0.1555345840347266	-0.001644200811556211	-9.780142634470206e-05	0.02899021665397998	0.00410377766963884	-0.3473287198598003	0.04879638406867574	0.002049038552895528	-0.3854231700474376	-0.04190628867928002	0.01822935103659877	0.4162294591795536	-64.95024365130419	5.822058943790319	-4.085899489167893	18.64309372582352	-802.7551519258384	-58.81981818569577	-0.04075238492198902	0.6675081048740881	-0.06838191260463998	1.550497469340248	-4.705723155239737	-0.05555544666764192	-1.661954952557502	0.2871981762398681	-5.216810290365616	-5.216810290365619	-0.4140105593302336	-0.008116523744965414	-1.562381734097827	-0.8571620017567491	-8.479449813016075e-09	3.714725622203293e-08	5.471702794306007e-08	9.370424563168189e-09	-2.471028207705898e-08	1.410458129079504e-07	-1.570129714184301e-08
1.01	-0.05881346296588733	-0.01957688859954929	0.693603307986421	1.218652595894824	-0.3344237377707533	0.07504426800053453	-0.9599298116461538	1.42785152006441	1.42785152006433	-0.062980779880088	-0.1745036176415855	0.3702822554833177	0.09920134286454026	0.1223799326755889	0.027413959485884	0.0824307596794739	-0.3559714901598973	-0.008473565434714744	-0.08215845225958958	0.001734030781234051	-0.2075254155805503	-0.2075254155805541	-0.005380994286178799	1.723022453450917e-05	0.01340900902760498	-0.004221135923255278	-0.3464355862808798	0.04892870501755132	0.001967889436139467	-0.3850444066088067	-0.0419533388681813	0.01836177630583053	0.4158210154963583	-64.91239521459042	5.73903767683045	-4.051095709866718	18.43697943471195	-802.2024613496019	-58.87174134883416	-0.04078011475184108	0.6413118913513317	-0.06312118441336523	1.534254208836967	-4.645139067437969	-0.03204034305177486	-1.681864145441084	0.3385386241236145	-5.184783910768311	-5.184783910768626	-0.3524588838892119	0.02078760762968424	-1.556416216201585	-0.8185524287079319	-1.302729352967592e-08	2.772026452312759e-08	8.815271874875961e-08	1.118406735492815e-08	-2.804665777738023e-08	1.566350922263248e-07	-2.281787397105716e-08
1.02	-0.05755767233118506	-0.01930581210814816	0.6945041639521258	1.214860968472341	-0.3345103035830223	0.07413918970365536	-0.9598951515592248	1.42551721784945	1.425517217849299	-0.06305309834038388	-0.1745029570018074	0.3703383685535027	0.09911777371438585	0.1287526671698481	0.0268103518594133	0.09771872713496929	-0.4022862626582424	-0.008831347450042472	-0.0988436869668092	0.005260412354494277	-0.2592988200894841	-0.2592988200894905	-0.009075593455256901	0.0001112458004406871	-0.00218923617055541	-0.01248190514222889	-0.3455424527019136	0.04906102596671227	0.001886740319529134	-0.3846656431701626	-0.04200038905701781	0.01849420157552508	0.4154125718131808	-64.88691464938499	5.658594064513826	-4.0171739302617	18.2912590977317	-801.8181715675813	-58.9026696258206	-0.04080976834951366	0.6368588734355304	-0.05754831782453677	1.524404949057544	-4.624467522750374	-0.04571422412718278	-1.645864687538537	0.3621094142272908	-5.173324882987852	-5.173324882987504	-0.4055716982212955	-0.01231973873902803	-1.565789248455395	-0.8443331269724852	-1.894375662016727e-08	1.653126405872634e-08	1.192551328228872e-07	1.598464741817461e-08	-3.484979595198416e-08	1.644975135133379e-07	-2.878331546520603e-08
1.03	-0.05623913109600286	-0.01904035329544944	0.6955572140427507	1.210608309126343	-0.3346001982888904	0.07306772549954846	-0.9598223568711954	1.422666303243679	1.422666303243754	-0.06316218747408445	-0.1745014453284694	0.3702385859166896	0.09895203954844371	0.1349083161182755	0.02630531726356421	0.1128662511310519	-0.4481691948413944	-0.009139506661231147	-0.1154328917768486	0.009461874303797413	-0.310844805749783	-0.3108448057497867	-0.01273608070145997	0.0001875610241651355	-0.01775294736129793	-0.02064272570770969	-0.3452853770236896	0.04926491328316793	0.001764674502897099	-0.3838931235731824	-0.0420720331098972	0.01870338528195805	0.4158156331041192	-64.86757459857132	5.529508895929731	-3.956786545540304	17.86620941413259	-801.7052091496691	-58.94797840136374	-0.04084854382083408	0.5978259934967605	-0.04339085128892183	1.506161766884216	-4.55874780252083	-0.02216904287737153	-1.66303634564814	0.4736669609716098	-5.139334127107652	-5.139334127107029	-0.3453824615028523	0.01711239536625197	-1.549511858766424	-0.7986446455022026	-2.487418521447324e-08	5.324283913044507e-09	1.503337379507742e-07	2.081570643317095e-08	-4.16883092538767e-08	1.72281089310235e-07	-3.473701068042567e-08
